<svg width="1920" height="962" viewBox="0 0 1920 962" fill="none" xmlns="http://www.w3.org/2000/svg">
<path d="M-135.78 1351.19C-33.2238 1364.64 -18.4481 1430.68 60.3684 1484.05C149.858 1544.72 240.26 1490.14 317.443 1435.17C409.06 1369.79 509.148 1250.14 626.898 1234.47C725.96 1221.29 838.848 1291.15 924.311 1332.44C1015.47 1376.49 1117.69 1438.32 1221.88 1430.72C1332.3 1422.69 1436.9 1353.92 1535.62 1308.93C1624.81 1268.27 1723.45 1224.88 1822.06 1257.04C1909.42 1285.58 1958.8 1342.81 2055.89 1351.23M-135.78 1157.82C-29.4254 1172.63 -104.406 1387.84 -90.8454 1451.03C-54.5328 1619.96 112.064 1393.37 150.884 1340.55C221.382 1244.6 283.827 1142.19 356.984 1048.15C395.766 998.329 446.057 916.42 509.186 899.305C620.061 869.286 804.738 1056.61 880.288 1115.64C972.703 1187.8 1125.06 1353.02 1252.15 1333.57C1310.68 1324.6 1383.16 1266.71 1428.4 1234.04C1502.62 1180.35 1573.08 1121.37 1645.66 1065.46C1701.08 1022.58 1880.48 857.98 1956.22 949.675C2002.37 1005.54 1945.62 1156.73 2056.12 1157.51M-135.78 964.329C-39.3392 989.396 -37.2881 1059.06 29.1077 1121.79C116.471 1204.32 205.885 1115.36 272.85 1049.32C352.996 970.332 450.957 806.086 570.302 780.745C671.301 759.303 827.566 853.96 916.563 891.737C1018.93 935.128 1149.33 1015.67 1263.43 1003.9C1378.86 991.97 1492.7 917.351 1596.78 870.49C1672.75 836.261 1803.03 761.33 1885.46 816.456C1961.95 867.683 1952.72 944.212 2056.38 964.095M-135.573 770.421C5.91679 746.172 136.771 690.929 274.463 651.553C373.563 623.172 435.666 613.386 527.549 661.144C582.398 689.642 641.501 737.4 705.01 743.911C797.311 753.384 912.972 677.323 993.042 638.649C1074.25 599.469 1188.09 520.016 1281.34 533.388C1361.1 544.889 1431.38 623.679 1492.3 670.734C1575.52 734.983 1633.79 745.002 1735.4 749.875C1842.93 755.061 1947.73 772.448 2055.79 770.616M-135.78 577.128C81.9812 546.446 328.155 287.191 535.432 449.528C603.234 502.626 672.44 598.102 764.095 608.511C858.409 619.193 948.203 533.464 1015.78 478.572C1086.16 421.38 1172.08 337.756 1269.2 350.699C1342.29 360.445 1395.77 419.392 1452.86 460.6C1531.71 517.441 1594.12 516.973 1687.07 527.187C1811.5 540.871 1930.16 576.777 2055.93 577.245M-135.78 383.671C-30.6789 370.455 29.4875 302.814 122.092 258.644C237.525 203.596 341.715 261.918 448.564 315.134C583.748 382.384 743.622 510.063 898.862 525.033C977.337 532.635 1014.18 488.192 1058.05 429.713C1107.01 364.412 1138.35 349.285 1213.41 329.442C1284.44 310.69 1322.99 259.54 1375.98 211.939C1451.26 144.377 1516.52 135.332 1610.57 174.668C1763.34 238.566 1891.65 349.675 2055.81 383.632M-135.78 190.037C-42.9097 176.158 24.3217 126.88 110.317 93.2747C228.675 47.0767 333.206 101.345 444.157 150.779C590.129 215.807 757.524 328.359 919.525 347.54C988.542 355.727 1014.86 328.047 1048.02 275.182C1085.55 215.456 1106.06 218.107 1169.95 198.341C1259.44 170.661 1309.62 76.3549 1366.79 7.31122C1442.07 -83.6814 1504.89 -115.182 1615.58 -60.212C1769 16.005 1884.66 153.859 2055.93 190.115M-135.78 -3.30029C102.417 5.23758 352.73 -5.17158 588.8 27.8883C687.824 41.8062 793.115 42.508 888.872 62.5856C1080.24 102.663 1267.57 -38.3874 1433.94 -121.856C1532.13 -171.134 1682.74 -266.649 1793.08 -200.49C1894.99 -139.477 1931.11 -26.8086 2055.89 -3.37823M-135.78 -196.863C51.974 -184.114 236.462 -144.349 422.772 -118.891C477.431 -111.406 619.301 -67.2351 660.969 -128.482C688.166 -168.481 658.348 -188.403 723.985 -196.161C787.759 -203.685 789.317 -182.048 813.171 -141.581C840.177 -95.8116 840.177 -83.1023 908.434 -88.6382C985.238 -95.0319 1076.06 -134.602 1146.93 -159.865C1255.11 -198.383 1362.04 -240.449 1469.8 -280.487C1561.91 -314.755 1779.78 -432.531 1880.94 -361.187C1960.36 -305.087 1946.53 -219.162 2055.96 -196.941M-135.78 -390.427C87.109 -384.072 326.028 -314.405 547.208 -359.472C668.756 -384.267 772.11 -401.226 894.456 -365.671C1086.05 -310 1270.27 -381.031 1457.72 -428.555C1564.07 -455.572 1678.03 -489.49 1788.18 -464.851C1882.26 -443.565 1957.13 -396.782 2055.89 -390.388M1856.66 -583.91C1870.03 -403.094 1996.14 -279.47 1897.38 -98.0308C1857.08 -23.958 1803.94 39.4327 1795.39 127.034C1786.27 220.599 1812.37 324.457 1825.97 416.464C1841.16 518.411 1843.36 623.556 1859.24 724.451C1869.8 791.584 1909.95 832.129 1942.81 888.424C2057.4 1085.03 1875.5 1339.53 1856.7 1544.55M1657.49 -583.91C1681 -480.948 1752.45 -492.371 1813.53 -427.772C1891.81 -344.966 1820.1 -267.385 1746.18 -218.887C1673.78 -171.402 1541.07 -128.635 1521.35 -30.6246C1499.86 75.2216 1564.66 235.219 1588.7 337.478C1606.59 413.695 1625.81 489.718 1640.02 566.753C1648.68 613.887 1644.31 678.174 1664.9 720.513C1698.55 789.635 1786.06 778.095 1848.05 799.966C1974.88 844.721 1929.15 944.798 1882.54 1046.71C1806.8 1212.43 1697.14 1364.21 1657.53 1544.71M1458.32 -583.91C1472.94 -434.049 1543.82 -269.256 1457.37 -132.221C1420.07 -73.1579 1370.01 -22.0476 1361.69 51.4404C1351.02 144.421 1395.65 249.137 1422.46 336.036C1453.91 437.906 1466.18 536.657 1490.15 638.682C1509.67 721.917 1569.08 789.518 1612.95 860.121C1677.18 963.511 1681.32 1036.45 1631.6 1148.26C1572.04 1281.91 1485.1 1397.77 1458.28 1544.67M1258.69 -583.91C1221.09 -440.247 1124.27 -335.415 1053.58 -208.828C994.061 -102.007 989.654 -30.0788 1081.58 50.9335C1143.41 105.514 1219.49 144.499 1244.49 229.878C1259.04 279.546 1255.05 302.547 1292.65 339.428C1338.99 384.885 1337.81 415.06 1336.83 483.129C1334.36 648.234 1335.35 813.299 1335.8 978.248C1336.14 1090.96 1357.11 1242.53 1320.27 1353.13C1296.91 1423.31 1261.69 1466.19 1258.69 1544.59M1059.56 -583.91C1026.17 -439.156 930.106 -330.931 862.533 -202.629C800.657 -84.8927 807.684 -16.0829 903.973 71.0502C974.357 134.792 1073.72 188.475 1099.13 287.655C1106.73 317.44 1108.55 352.059 1115.54 381.649C1158.54 563.362 1105.14 771.935 1083.6 955.168C1060.35 1152.98 1068.9 1346.9 1059.82 1544.75M860.556 -583.91C859.721 -472.138 829.941 -368.553 813.304 -259.081C794.844 -136.744 818.964 -46.9986 878.409 59.6663C955.63 198.338 1136.7 404.417 958.517 526.364C892.235 571.705 894.552 591.86 871.382 668.662C851.136 735.717 795.034 771.155 751.467 821.408C676.259 908.151 694.985 983.667 726.625 1089.71C772.206 1241.75 836.968 1386.19 860.405 1544.51M661.115 -583.91C659.026 -477.557 676.308 -374.751 684.513 -269.178C693.667 -153.235 704.188 -57.8756 741.678 53.5456C778.067 161.77 844.957 285.939 849.097 401.766C851.49 468.977 809.897 507.963 762.873 546.013C698.301 598.254 699.858 626.987 670.497 700.825C643.452 768.894 563.42 779.343 507.166 813.572C402.635 877.158 433.477 964.915 474.842 1068.66C538.503 1228.22 636.881 1371.11 661.305 1544.28M462.066 -583.91C488.313 -448.083 570.928 -344.46 628.359 -222.161C677.473 -117.602 677.093 -48.1682 593.528 30.466C538.566 82.2 451.469 128.359 437.794 211.399C427.349 274.711 471.714 339.233 503.317 389.057C546.466 457.009 579.019 515.487 559.875 598.332C523.182 757.199 374.247 905.344 285.859 1034.89C227.554 1120.47 84.2786 1290.52 213.12 1375.55C300.293 1433.13 422.639 1433.44 461.838 1544.9M262.836 -583.91C301.655 -432.684 417.012 -328.553 496.855 -199.862C519.911 -162.747 567.542 -93.0796 547.411 -43.1779C529.824 0.486073 456.25 13.7022 419.899 20.9926C344.691 36.041 163.508 23.7215 134.45 118.457C111.242 194.323 228.688 275.764 273.851 314.399C353.048 382.156 426.698 434.241 401.857 547.066C384.156 627.337 330.333 705.309 291.286 776.808C223.409 901.446 149.492 1022.3 79.5258 1145.42C50.3541 1196.8 -172.991 1508.65 -10.42 1527.28C51.1898 1534.34 244.832 1442.41 262.646 1544.83M63.439 -583.91C82.0131 -398.026 283.518 -158.381 135.039 9.68665C83.4945 68.1652 15.2755 108.476 5.55161 193.621C-2.84283 268.201 37.534 342.001 68.4529 406.327C106.437 485.078 138.951 555.253 127.024 644.998C108.678 783.358 31.0768 918.171 -19.9736 1045.58C-55.8683 1135.24 -126.86 1275.59 -60.2365 1368.88C-9.37605 1440.07 49.9168 1445.3 63.477 1544.75" stroke="url(#paint0_radial_2066_1371)" stroke-miterlimit="10"/>
<defs>
<radialGradient id="paint0_radial_2066_1371" cx="0" cy="0" r="1" gradientUnits="userSpaceOnUse" gradientTransform="translate(1079 1052) rotate(-114.53) scale(1209.13 1381.55)">
<stop stop-color="#6E6A9E"/>
<stop offset="1" stop-color="#1F1D2B"/>
</radialGradient>
</defs>
</svg>
