<svg width="26" height="26" viewBox="0 0 26 26"  xmlns="http://www.w3.org/2000/svg">
<path d="M14.625 9.34375C14.625 9.1027 14.6965 8.86707 14.8304 8.66665C14.9643 8.46622 15.1547 8.31001 15.3774 8.21777C15.6001 8.12552 15.8451 8.10139 16.0815 8.14841C16.3179 8.19544 16.5351 8.31151 16.7055 8.48196C16.876 8.6524 16.9921 8.86957 17.0391 9.10598C17.0861 9.34239 17.062 9.58744 16.9697 9.81014C16.8775 10.0328 16.7213 10.2232 16.5209 10.3571C16.3204 10.491 16.0848 10.5625 15.8438 10.5625C15.5205 10.5625 15.2105 10.4341 14.982 10.2055C14.7534 9.97697 14.625 9.66698 14.625 9.34375ZM10.1562 8.125C9.9152 8.125 9.67957 8.19647 9.47915 8.33039C9.27873 8.46431 9.12252 8.65465 9.03027 8.87735C8.93803 9.10005 8.91389 9.3451 8.96092 9.58151C9.00794 9.81793 9.12402 10.0351 9.29446 10.2055C9.46491 10.376 9.68207 10.4921 9.91848 10.5391C10.1549 10.5861 10.3999 10.562 10.6226 10.4697C10.8453 10.3775 11.0357 10.2213 11.1696 10.0208C11.3035 9.82042 11.375 9.58479 11.375 9.34375C11.375 9.02051 11.2466 8.71052 11.018 8.48196C10.7895 8.2534 10.4795 8.125 10.1562 8.125ZM21.9375 14.625C21.9397 15.4137 21.8373 16.1992 21.6328 16.9609L23.8916 17.9481C24.0598 18.0248 24.1969 18.1565 24.2802 18.3216C24.3635 18.4867 24.388 18.6752 24.3496 18.8561C24.3112 19.0369 24.2124 19.1993 24.0692 19.3164C23.9261 19.4335 23.7474 19.4982 23.5625 19.5C23.4506 19.5003 23.3399 19.4771 23.2375 19.4319L21.062 18.4844C20.3342 20.0053 19.191 21.2894 17.7644 22.1883C16.3379 23.0871 14.6861 23.5641 13 23.5641C11.3139 23.5641 9.66213 23.0871 8.23555 22.1883C6.80898 21.2894 5.66577 20.0053 4.93797 18.4844L2.7625 19.4319C2.66011 19.4771 2.5494 19.5003 2.4375 19.5C2.25092 19.4999 2.07007 19.4356 1.92533 19.3178C1.78058 19.2001 1.68076 19.0362 1.64264 18.8535C1.60451 18.6709 1.63041 18.4807 1.71597 18.3149C1.80153 18.1491 1.94155 18.0178 2.1125 17.943L4.36719 16.9609C4.16272 16.1992 4.06026 15.4137 4.0625 14.625V13.8125H1.625C1.40951 13.8125 1.20285 13.7269 1.05048 13.5745C0.898102 13.4221 0.8125 13.2155 0.8125 13C0.8125 12.7845 0.898102 12.5778 1.05048 12.4255C1.20285 12.2731 1.40951 12.1875 1.625 12.1875H4.0625V11.375C4.06026 10.5863 4.16272 9.80079 4.36719 9.03906L2.1125 8.05695C2.0124 8.01585 1.92152 7.95518 1.84519 7.87848C1.76886 7.80178 1.70862 7.71061 1.668 7.61032C1.62738 7.51003 1.60721 7.40263 1.60866 7.29443C1.61011 7.18624 1.63316 7.07942 1.67645 6.98025C1.71974 6.88108 1.78241 6.79156 1.86077 6.71694C1.93913 6.64232 2.03161 6.5841 2.13277 6.5457C2.23394 6.50731 2.34175 6.4895 2.44989 6.49334C2.55803 6.49718 2.66431 6.52257 2.7625 6.56804L4.93797 7.51562C5.66577 5.99465 6.80898 4.71059 8.23555 3.81174C9.66213 2.91288 11.3139 2.43591 13 2.43591C14.6861 2.43591 16.3379 2.91288 17.7644 3.81174C19.191 4.71059 20.3342 5.99465 21.062 7.51562L23.2375 6.565C23.434 6.48433 23.6542 6.48381 23.8511 6.56353C24.0479 6.64325 24.2057 6.79689 24.2907 6.99154C24.3757 7.18618 24.3811 7.40636 24.3057 7.60493C24.2303 7.8035 24.0802 7.96466 23.8875 8.0539L21.6328 9.04414C21.8373 9.80587 21.9397 10.5914 21.9375 11.3801V12.1926H24.375C24.5905 12.1926 24.7972 12.2782 24.9495 12.4305C25.1019 12.5829 25.1875 12.7896 25.1875 13.0051C25.1875 13.2206 25.1019 13.4272 24.9495 13.5796C24.7972 13.732 24.5905 13.8176 24.375 13.8176H21.9375V14.625ZM5.6875 12.1875H20.3125V11.375C20.3125 9.4356 19.5421 7.57564 18.1707 6.20428C16.7994 4.83292 14.9394 4.0625 13 4.0625C11.0606 4.0625 9.20064 4.83292 7.82928 6.20428C6.45792 7.57564 5.6875 9.4356 5.6875 11.375V12.1875ZM12.1875 21.8908V13.8125H5.6875V14.625C5.68964 16.423 6.35336 18.1572 7.55213 19.4972C8.7509 20.8372 10.4009 21.6892 12.1875 21.8908ZM20.3125 14.625V13.8125H13.8125V21.8908C15.5991 21.6892 17.2491 20.8372 18.4479 19.4972C19.6466 18.1572 20.3104 16.423 20.3125 14.625Z" />
</svg>
