<svg width="31" height="24" viewBox="0 0 31 24" xmlns="http://www.w3.org/2000/svg">
<path d="M8.13994 7.76875L3.06244 12L8.13994 16.2313C8.24375 16.3144 8.32994 16.4173 8.39347 16.5341C8.45701 16.6509 8.4966 16.7793 8.50995 16.9116C8.52329 17.0438 8.51012 17.1775 8.4712 17.3046C8.43228 17.4318 8.36839 17.5499 8.28327 17.652C8.19815 17.7542 8.09352 17.8384 7.97548 17.8996C7.85745 17.9608 7.72839 17.9979 7.59585 18.0086C7.46332 18.0194 7.32997 18.0036 7.20361 17.9622C7.07725 17.9208 6.96041 17.8546 6.85994 17.7675L0.859944 12.7675C0.74736 12.6737 0.656782 12.5562 0.594623 12.4235C0.532464 12.2907 0.500244 12.1459 0.500244 11.9994C0.500244 11.8528 0.532464 11.708 0.594623 11.5753C0.656782 11.4426 0.74736 11.3251 0.859944 11.2313L6.85994 6.23125C7.06383 6.06151 7.32679 5.97972 7.59098 6.00387C7.85518 6.02801 8.09896 6.15612 8.26869 6.36C8.43843 6.56389 8.52023 6.82685 8.49608 7.09104C8.47194 7.35523 8.34383 7.59901 8.13994 7.76875ZM30.1399 11.2313L24.1399 6.23125C24.039 6.14721 23.9225 6.08387 23.797 6.04485C23.6716 6.00584 23.5397 5.99191 23.4089 6.00387C23.2781 6.01582 23.1509 6.05343 23.0346 6.11453C22.9183 6.17564 22.8152 6.25905 22.7312 6.36C22.5615 6.56389 22.4797 6.82685 22.5038 7.09104C22.528 7.35523 22.6561 7.59901 22.8599 7.76875L27.9374 12L22.8599 16.2313C22.7561 16.3144 22.6699 16.4173 22.6064 16.5341C22.5429 16.6509 22.5033 16.7793 22.4899 16.9116C22.4766 17.0438 22.4898 17.1775 22.5287 17.3046C22.5676 17.4318 22.6315 17.5499 22.7166 17.652C22.8017 17.7542 22.9064 17.8384 23.0244 17.8996C23.1424 17.9608 23.2715 17.9979 23.404 18.0086C23.5366 18.0194 23.6699 18.0036 23.7963 17.9622C23.9226 17.9208 24.0395 17.8546 24.1399 17.7675L30.1399 12.7675C30.2525 12.6737 30.3431 12.5562 30.4053 12.4235C30.4674 12.2907 30.4996 12.1459 30.4996 11.9994C30.4996 11.8528 30.4674 11.708 30.4053 11.5753C30.3431 11.4426 30.2525 11.3251 30.1399 11.2313ZM19.8412 0.0600025C19.7178 0.0151854 19.5867 -0.00487819 19.4555 0.000957227C19.3243 0.00679264 19.1955 0.038413 19.0766 0.0940125C18.9576 0.149612 18.8507 0.228102 18.7621 0.325C18.6734 0.421898 18.6048 0.535308 18.5599 0.658753L10.5599 22.6588C10.5149 22.7823 10.4947 22.9134 10.5005 23.0448C10.5062 23.1761 10.5378 23.305 10.5934 23.4242C10.649 23.5433 10.7276 23.6503 10.8246 23.739C10.9216 23.8277 11.0351 23.8964 11.1587 23.9413C11.2683 23.9802 11.3837 24.0001 11.4999 24C11.7053 24 11.9057 23.9368 12.0739 23.8189C12.242 23.7011 12.3699 23.5343 12.4399 23.3413L20.4399 1.34125C20.4848 1.21781 20.5048 1.08675 20.499 0.955553C20.4932 0.824356 20.4615 0.695594 20.4059 0.576618C20.3503 0.457642 20.2718 0.350783 20.1749 0.262141C20.078 0.1735 19.9646 0.104813 19.8412 0.0600025Z" />
</svg>
