<svg width="18" height="18" viewBox="0 0 18 18" xmlns="http://www.w3.org/2000/svg">
<path d="M12.6562 4.5H2.8125C2.58872 4.5 2.37411 4.58889 2.21588 4.74713C2.05764 4.90536 1.96875 5.11997 1.96875 5.34375V15.1875C1.96875 15.4113 2.05764 15.6259 2.21588 15.7841C2.37411 15.9424 2.58872 16.0312 2.8125 16.0312H12.6562C12.88 16.0312 13.0946 15.9424 13.2529 15.7841C13.4111 15.6259 13.5 15.4113 13.5 15.1875V5.34375C13.5 5.11997 13.4111 4.90536 13.2529 4.74713C13.0946 4.58889 12.88 4.5 12.6562 4.5ZM11.8125 14.3438H3.65625V6.1875H11.8125V14.3438ZM16.0312 2.8125V12.6562C16.0312 12.88 15.9424 13.0946 15.7841 13.2529C15.6259 13.4111 15.4113 13.5 15.1875 13.5C14.9637 13.5 14.7491 13.4111 14.5909 13.2529C14.4326 13.0946 14.3438 12.88 14.3438 12.6562V3.65625H5.34375C5.11997 3.65625 4.90536 3.56736 4.74713 3.40912C4.58889 3.25089 4.5 3.03628 4.5 2.8125C4.5 2.58872 4.58889 2.37411 4.74713 2.21588C4.90536 2.05764 5.11997 1.96875 5.34375 1.96875H15.1875C15.4113 1.96875 15.6259 2.05764 15.7841 2.21588C15.9424 2.37411 16.0312 2.58872 16.0312 2.8125Z" />
</svg>
