<svg width="16" height="4" viewBox="0 0 16 4" fill="none" xmlns="http://www.w3.org/2000/svg">
<path d="M1.8108 3.71278C1.31869 3.71278 0.891942 3.55515 0.530552 3.2399C0.176851 2.92464 0 2.51327 0 2.00579C0 1.65978 0.0807361 1.3599 0.242208 1.10616C0.403681 0.844726 0.622822 0.644808 0.899631 0.506403C1.17644 0.360309 1.48016 0.287262 1.8108 0.287262C2.31059 0.287262 2.7335 0.44489 3.07951 0.760145C3.43321 1.06771 3.61006 1.48293 3.61006 2.00579C3.61006 2.34411 3.52932 2.64399 3.36785 2.90542C3.20638 3.15916 2.98724 3.35524 2.71043 3.49364C2.44131 3.63973 2.14143 3.71278 1.8108 3.71278Z" fill="white"/>
<path d="M8.00567 3.71278C7.51357 3.71278 7.08682 3.55515 6.72543 3.2399C6.37173 2.92464 6.19488 2.51327 6.19488 2.00579C6.19488 1.65978 6.27561 1.3599 6.43709 1.10616C6.59856 0.844726 6.8177 0.644808 7.09451 0.506403C7.37132 0.360309 7.67504 0.287262 8.00567 0.287262C8.50547 0.287262 8.92837 0.44489 9.27438 0.760145C9.62809 1.06771 9.80494 1.48293 9.80494 2.00579C9.80494 2.34411 9.7242 2.64399 9.56273 2.90542C9.40126 3.15916 9.18211 3.35524 8.9053 3.49364C8.63618 3.63973 8.33631 3.71278 8.00567 3.71278Z" fill="white"/>
<path d="M14.2006 3.71278C13.7084 3.71278 13.2817 3.55515 12.9203 3.2399C12.5666 2.92464 12.3898 2.51327 12.3898 2.00579C12.3898 1.65978 12.4705 1.3599 12.632 1.10616C12.7934 0.844726 13.0126 0.644808 13.2894 0.506403C13.5662 0.360309 13.8699 0.287262 14.2006 0.287262C14.7003 0.287262 15.1233 0.44489 15.4693 0.760145C15.823 1.06771 15.9998 1.48293 15.9998 2.00579C15.9998 2.34411 15.9191 2.64399 15.7576 2.90542C15.5961 3.15916 15.377 3.35524 15.1002 3.49364C14.8311 3.63973 14.5312 3.71278 14.2006 3.71278Z" fill="white"/>
</svg>
