<svg width="26" height="26" viewBox="0 0 26 26" fill="none" xmlns="http://www.w3.org/2000/svg">
<g clip-path="url(#clip0_2066_1277)">
<rect width="26" height="26" rx="7.09091" fill="url(#paint0_linear_2066_1277)"/>
<g opacity="0.5">
<path d="M-59.6836 77.7701C-51.06 77.7701 -41.1791 79.1111 -32.7666 76.9961C-29.0351 76.0578 -25.7289 74.9094 -21.8191 74.821C-17.9686 74.7325 -14.3825 75.4307 -10.6494 76.3184C-2.70301 78.2139 4.58964 77.6611 12.6533 76.9187C21.9275 76.0625 30.942 77.8348 40.1787 77.7716M-59.6836 72.9662H-45.3204C-40.6958 72.9662 -37.3959 73.3326 -33.7238 70.1434C-30.9087 67.7014 -28.788 64.1757 -24.7577 63.7303C-20.485 63.2564 -16.1404 66.3508 -12.6153 68.3348C-8.793 70.4878 -4.95196 72.9377 -0.458764 72.9567C3.76387 72.9725 8.00058 71.3771 12.0621 70.3914C16.5678 69.2952 20.7529 68.9809 25.3337 69.9539C30.3149 71.0138 35.0489 72.6787 40.1739 72.9662M-59.6836 68.1585H-45.3204C-40.0593 68.1585 -37.2473 68.4744 -34.7294 63.1844C-33.2061 59.9841 -31.894 53.293 -27.8215 52.3689C-23.4018 51.3659 -17.6214 57.7537 -14.6656 60.2084C-10.9794 63.2712 -6.58315 68.0305 -1.4503 68.1064C2.84428 68.1774 7.53922 65.3026 11.4553 63.7799C16.2034 61.9333 20.0711 61.3331 25.0037 63.0548C30.11 64.835 34.7314 67.4777 40.1739 68.1474M-59.6836 63.361H-45.3204C-43.3529 63.361 -40.6895 63.8444 -38.855 63.0656C-36.5686 62.0942 -35.8695 59.5526 -35.2345 57.3049C-34.2539 53.8298 -33.8974 45.0125 -29.5715 43.8247C-24.9297 42.5515 -18.5504 50.8665 -15.8182 53.547C-12.3416 56.959 -7.47773 63.4984 -2.01332 63.3247C2.55338 63.1809 7.12008 59.8496 11.1238 57.932C15.8969 55.6463 19.7708 54.8597 24.8067 57.0206C29.988 59.2446 34.4671 62.5965 40.1739 63.3594M-59.6836 58.5591H-45.3204C-43.3592 58.5591 -40.7114 59.033 -38.8707 58.2937C-36.5388 57.3539 -35.7037 54.7159 -34.9327 52.4761C-33.7191 48.9568 -32.7698 39.8615 -28.3923 38.7242C-23.6723 37.5 -17.3884 45.7644 -14.6108 48.5018C-11.1092 51.9548 -6.26723 58.5275 -0.751216 58.2747C3.62781 58.0757 8.10381 55.5468 12.1513 54.0304C16.9229 52.2423 20.7264 51.511 25.6543 53.3496C30.5557 55.1788 34.9129 57.7914 40.1708 58.5528M-59.6836 53.7554H-45.3204C-43.27 53.7554 -40.7396 54.1755 -38.7909 53.4805C-36.2261 52.5675 -34.917 49.8301 -33.7394 47.5239C-31.8408 43.804 -29.4652 34.4449 -24.6858 33.4529C-19.7468 32.4294 -13.7741 40.2278 -10.7667 43.1326C-6.85684 46.9237 -2.58103 52.4111 3.17583 52.8582C7.12477 53.163 11.4772 52.1963 15.4184 51.8172C19.6519 51.4113 23.7745 51.1048 27.9987 51.8062C32.0899 52.4854 36.017 53.5153 40.1802 53.7538M-59.6836 48.9534H-45.3204C-43.1793 48.9534 -40.7349 49.3088 -38.6799 48.6643C-35.8054 47.7639 -33.9662 44.9254 -32.3287 42.5418C-29.559 38.5139 -25.7915 29.1153 -20.4084 28.1107C-15.3334 27.163 -9.4827 34.6802 -6.33292 37.6735C-2.11029 41.681 1.85274 46.2823 7.705 47.3612C11.6149 48.0814 15.3448 48.9976 19.1953 49.977C23.1051 50.9689 26.6568 51.5249 30.6636 50.732C33.8681 50.1002 36.8944 49.2251 40.1771 48.9565M-59.6836 44.1482H-45.3204C-43.1465 44.1482 -40.738 44.472 -38.6424 43.856C-35.5817 42.9556 -33.3813 40.0112 -31.4482 37.6261C-28.0842 33.4907 -23.2579 23.9484 -17.5135 22.9359C-12.3901 22.0371 -6.58315 29.4043 -3.35674 32.4229C1.03323 36.5298 4.89147 40.6368 10.7516 42.0473C14.896 43.0472 18.0395 45.1702 21.7116 47.2331C25.0147 49.0875 28.9511 50.7082 32.52 48.5205C35.3977 46.7719 36.5002 44.6805 40.1739 44.1482M-59.6836 39.3478H-45.3204C-43.1309 39.3478 -40.7615 39.6511 -38.6627 39.0019C-35.7147 38.0904 -33.4297 35.293 -31.4373 33.0689C-27.9434 29.1658 -22.8966 20.3706 -17.3618 19.3392C-12.5136 18.4388 -6.46742 25.4601 -3.25353 28.2101C1.15053 31.9774 5.16673 35.8411 10.8125 37.2596C14.9914 38.3116 18.2475 40.3192 22.0166 42.3364C25.2602 44.0739 29.4312 45.8336 32.9016 43.6C35.6964 41.8025 36.4549 39.8343 40.1724 39.3494M-59.6836 34.5447H-45.3204C-39.44 34.5447 -36.4247 34.0313 -31.7141 30.0649C-27.9685 26.9058 -23.3486 20.9586 -18.2376 20.2383C-13.5552 19.5796 -8.03292 24.1873 -4.31857 26.4477C0.158991 29.1914 4.35973 31.9399 9.56296 32.7755C13.8716 33.469 17.8518 34.7121 22.026 35.9442C25.5277 36.9756 29.7972 38.2077 33.3755 36.8208C35.8637 35.8573 37.2853 34.7579 40.1739 34.5447M-59.6836 29.7426C-50.888 29.7426 -40.261 31.4802 -32.0894 27.6891C-27.9825 25.7826 -24.0007 23.1004 -19.373 22.7924C-14.7454 22.4844 -10.077 24.2709 -5.72142 25.593C-1.18599 26.9689 3.19304 28.3305 7.95367 28.3652C12.6549 28.3984 17.3217 28.8059 22.0072 29.1218C28.044 29.5294 34.1246 29.5689 40.1755 29.7347M-59.6836 24.9393C-50.6909 24.9393 -41.3042 25.7212 -32.3663 24.6897C-23.788 23.7009 -15.4397 23.505 -6.79584 23.8352C2.89277 24.2064 12.3624 23.5066 22.0166 22.7374C25.5277 22.4578 31.1172 21.1183 34.4468 22.7374C36.6066 23.7862 37.4715 24.7008 40.1755 24.9377M-59.6836 20.1385C-42.1597 20.1385 -24.5935 20.5161 -7.08674 19.6757C2.72385 19.2018 12.2451 18.728 21.9869 17.3885C25.218 16.9462 31.4706 15.3871 34.4984 17.2511C35.1803 17.6712 35.3414 18.3315 35.9278 18.799C37.3589 19.9348 38.2972 20.0501 40.1739 20.1385M-59.6836 15.3334C-42.3708 15.3334 -25.0251 15.6493 -7.72327 14.9827C-3.4803 14.8169 0.772056 14.8074 5.01033 14.6336C10.4966 14.4093 15.8688 12.6623 21.194 11.4523C24.4923 10.702 30.9608 8.62804 34.0183 11.0432C36.5597 13.043 36.2641 15.0285 40.1739 15.3365M-59.6836 10.5319C-42.6836 10.5319 -25.6663 10.7578 -8.67101 10.3439C-4.76116 10.2492 -0.763736 10.4561 3.12735 10.1212C8.90297 9.62681 14.5519 6.87043 19.9991 5.02073C23.5962 3.79971 30.0537 0.932757 33.3536 4.23094C36.0279 6.90202 35.7558 9.83847 40.1818 10.5335M-59.6836 5.72796C-42.9494 5.72796 -26.2153 5.82432 -9.48113 5.68216C-5.88407 5.65214 -2.07901 5.99807 1.50711 5.5779C7.54548 4.87341 13.4572 1.17875 18.9685 -1.20485C22.8783 -2.89184 29.192 -6.35588 32.7593 -2.33583C35.5744 0.834402 35.3414 4.69649 40.1818 5.72007M-59.6836 0.926088H-9.75482C-6.24377 0.926088 -2.52473 1.28465 0.97068 0.875542C7.10289 0.158409 13.0803 -3.89008 18.5932 -6.45691C22.5859 -8.31608 28.7932 -11.878 32.4653 -7.69688C35.3414 -4.42082 35.2475 -0.144873 40.1755 0.924508M-59.6836 -3.87095H-9.75483C-6.22814 -3.87095 -2.53568 -3.54556 0.978493 -3.9294C6.68374 -4.55176 12.2107 -7.70777 17.4812 -9.81336C21.7414 -11.5146 27.04 -14.0782 31.1594 -10.8006C34.4437 -8.18797 35.6573 -4.765 40.1771 -3.87411M-59.6836 -8.67935H-9.75483C-6.20468 -8.67935 -2.60293 -8.49612 0.942521 -8.69357C5.94713 -8.97158 10.7953 -10.8623 15.5982 -12.1829C20.0148 -13.396 24.5346 -14.4749 28.9714 -12.7752C32.8813 -11.2825 35.8528 -9.03476 40.1739 -8.67935M-59.6836 -13.4826H-9.75482C-1.79749 -13.4826 5.88458 -13.718 13.7887 -14.6389C18.1083 -15.1428 22.5468 -15.3386 26.8695 -14.8521C31.3377 -14.3498 35.6463 -13.4305 40.1708 -13.4779M35.4166 -18.2817C35.3853 -13.843 36.0906 -9.54972 36.4769 -5.14898C36.8585 -0.80196 36.6161 3.61457 36.735 7.97897C36.9555 16.1059 37.0478 24.1998 36.8445 32.3299C36.6552 39.7966 36.6005 46.9964 35.6215 54.3983C34.4 63.6247 35.4291 73.2902 35.4197 82.575M30.664 -18.2848C30.9157 -14.3358 32.6502 -11.4925 33.8247 -7.87369C35.1431 -3.80941 34.6332 1.04782 34.9101 5.29059C35.5106 14.528 35.7421 23.4874 35.2119 32.7359C34.9679 37.0119 35.1087 41.4094 34.6864 45.6617C34.3736 48.8398 32.9285 50.6232 31.485 53.28C29.5129 56.9131 30.0775 61.0579 30.187 65.0543C30.3527 70.8988 30.6155 76.729 30.664 82.5719M25.9124 -18.2897C26.5458 -14.2601 29.0778 -13.5746 31.2564 -10.7077C33.6352 -7.58007 32.8532 -1.26962 33.2129 2.48822C33.7243 7.85882 34.4844 13.2452 34.5829 18.6379C34.6721 23.4778 34.1137 28.3445 33.7165 33.1607C33.3443 37.7099 33.8385 43.1531 32.7781 47.5681C31.9962 50.8505 29.8457 50.7067 27.381 52.122C23.6478 54.2687 24.9459 59.3423 25.0992 62.9691C25.376 69.5038 25.792 76.0291 25.9062 82.5686M21.1553 -18.2866C21.9372 -13.7816 24.9666 -14.7373 27.8083 -12.4011C30.5952 -10.1075 29.7914 -2.43544 30.1542 0.867481C30.7907 6.554 31.7463 12.2895 31.8636 18.0186C31.9668 23.146 31.2677 28.3081 30.786 33.4007C30.4951 36.4777 30.1886 39.5611 29.9618 42.6381C29.8304 44.4246 30.1839 46.9472 29.649 48.6848C28.573 52.2057 25.7001 50.8535 22.9241 51.3858C18.2964 52.2704 19.9667 58.2033 20.1418 61.7274C20.4859 68.6776 21.0145 75.6136 21.1459 82.578M16.4023 -18.2897C17.153 -14.1085 19.8992 -14.1606 22.3984 -11.5543C24.9993 -8.84374 24.2392 -1.89987 24.7209 1.63998C25.4669 7.11799 26.6179 12.6702 26.6742 18.2146C26.7227 23.1792 26.2144 28.1818 25.9126 33.1322C25.7343 36.0671 25.5513 39.0035 25.3934 41.9416C25.2995 43.7186 25.6326 46.1764 25.1259 47.9124C24.0937 51.4554 20.9158 50.7351 18.0741 51.7145C13.5074 53.2941 14.9963 58.374 15.234 62.3483C15.6359 69.0899 16.2975 75.8111 16.3991 82.567M11.6446 -18.2866C12.0371 -14.3866 14.125 -12.3379 15.678 -9.00652C17.428 -5.25658 16.9604 -0.0249863 17.769 4.05509C18.7449 8.97392 20.1149 13.9117 20.3182 18.9474C20.4918 23.3845 20.4511 27.8405 20.5966 32.2807C20.7295 36.3419 21.7492 41.5624 20.8296 45.5493C19.8912 49.5851 16.083 50.4349 13.1178 52.5563C8.82637 55.627 9.63649 59.3391 10.0713 64.22C10.6139 70.3409 11.4788 76.4207 11.643 82.5701M6.88546 -18.2817C6.94176 -14.0642 8.03339 -10.2131 8.67461 -6.09358C9.3643 -1.67073 9.2126 2.46778 10.4778 6.83218C11.729 11.1287 13.2929 15.3146 13.7089 19.8069C14.0608 23.6801 14.5034 27.4537 15.1915 31.2968C15.8171 34.8351 17.1918 39.2122 16.5991 42.8278C15.8375 47.4939 11.1926 50.3783 8.13505 53.49C4.14544 57.5559 4.13919 60.9378 4.85078 66.3605C5.56237 71.7832 6.64931 77.1017 6.8839 82.5702M2.13132 -18.2817C2.05625 -13.5429 2.26738 -8.80415 2.35183 -4.06539C2.43472 0.528052 2.35183 4.39488 4.00648 8.72927C5.47033 12.5882 7.23602 16.196 7.71458 20.355C8.10182 23.8516 8.86806 27.2947 9.9995 30.6223C11.0677 33.7926 12.6582 37.522 12.2078 40.956C11.5353 46.126 6.28358 50.364 3.21513 54.1866C-0.480463 58.7911 -1.19206 62.1193 -0.225542 67.8437C0.601782 72.7705 1.88109 77.5471 2.13914 82.5608M-2.62173 -18.2848C-2.62173 -9.50383 -4.0668 0.624491 -1.01087 8.98841C0.38104 12.7952 2.06071 16.3746 2.51426 20.4609C2.89898 23.936 3.46669 26.7793 4.85234 30.0569C6.1035 33.0092 7.56109 36.3642 7.11224 39.6687C6.40377 44.8814 1.12235 49.3216 -1.9289 53.2532C-5.55724 57.924 -6.42522 61.2585 -5.36956 67.0225C-4.40931 72.2351 -2.81565 77.2519 -2.62485 82.583M-7.36997 -18.2848C-7.36997 -9.34587 -8.45222 0.354379 -6.22047 9.06738C-5.22425 12.9547 -4.03878 16.6873 -3.69784 20.7137C-3.45856 23.5174 -3.17079 25.2566 -1.55837 27.6117C3.8513 35.5097 -3.68846 41.8896 -8.41312 47.9884C-12.3808 53.1094 -12.7921 56.5087 -11.4597 62.7639C-10.0521 69.3681 -7.80005 75.8018 -7.3684 82.5798M-12.1322 -18.2848C-12.1322 -9.20212 -12.7734 0.152194 -11.6067 9.17638C-11.0938 13.1443 -10.5323 17.038 -10.3556 21.0407C-10.3384 21.4371 -10.5245 23.7607 -9.92862 24.1998C-9.35622 24.6247 -8.94334 24.1998 -8.48823 24.4305C-8.03313 24.6611 -7.62807 24.1951 -7.04941 24.6611C-6.41289 25.1744 -6.57084 27.0984 -6.65999 27.8281C-7.28556 32.9286 -12.4794 37.3057 -15.4431 41.1472C-19.8362 46.8337 -19.5641 50.4573 -17.9454 57.3522C-15.9732 65.7398 -13.0127 73.9568 -12.1432 82.564M-16.8881 -18.2848C-16.8881 -10.3047 -16.996 -2.3167 -16.9053 5.66337C-16.8647 9.17954 -16.6801 12.6925 -16.5925 16.2071C-16.5503 18.1121 -17.3604 22.2538 -16.1922 23.7639C-14.9676 22.8935 -14.8175 21.0786 -13.5945 20.213C-10.1163 25.5836 -22.4542 35.6929 -24.5874 39.8377C-27.3149 45.1325 -24.3262 52.0922 -22.9093 57.4091C-20.6963 65.7193 -17.8922 73.9948 -16.8819 82.564M-21.6424 -18.2848V16.2577C-21.6424 18.1263 -22.4321 22.3091 -21.2451 23.7749C-20.0909 22.6692 -19.994 20.8258 -18.8382 19.7217C-15.4241 24.7116 -27.4164 35.2885 -29.4136 39.2217C-32.1552 44.627 -29.1805 51.5425 -27.748 56.9731C-25.5194 65.4302 -22.7058 73.8573 -21.6486 82.5624M-26.3982 -18.2848V9.26641C-26.3982 13.2896 -26.4968 17.3223 -26.3982 21.3503C-26.3982 21.3582 -26.514 24.1335 -26.0855 24.3515C-25.9369 24.4241 -25.0361 24.3594 -25.1752 24.2314C-25.2534 24.1588 -24.4934 23.9708 -24.2666 24.113C-23.7349 24.4462 -23.9538 26.5645 -24.0164 27.1142C-24.5246 31.815 -28.0826 36.0309 -30.3441 39.9957C-33.6893 45.8496 -33.289 49.7465 -31.8892 56.3081C-30.0266 65.048 -27.3147 73.6535 -26.3982 82.5672M-31.1529 -18.2848V9.26641C-31.1529 15.4442 -31.7441 21.8541 -30.5023 27.9213C-29.0822 34.8715 -31.1451 40.4601 -33.3174 47.0122C-37.1631 58.6112 -31.6596 70.8071 -31.1513 82.5735M-35.9085 -18.2848C-35.9085 -1.84441 -36.3777 14.6797 -35.7521 31.1105C-35.4796 38.4381 -35.7321 45.776 -36.5075 53.0668C-37.5319 62.9313 -35.7506 72.7169 -35.907 82.5782M-40.6628 -18.2848V82.5719M-45.4187 -18.2848V82.5719M-50.1735 -18.2848V82.5719M-54.9294 -18.2848V82.5719" stroke="url(#paint1_linear_2066_1277)" stroke-width="0.590909" stroke-miterlimit="10"/>
</g>
<path d="M19.5179 16.2741C19.3541 16.2741 19.2124 16.2174 19.0927 16.104C18.9793 15.9843 18.9227 15.8426 18.9227 15.6788V10.0665C18.9227 9.94678 18.9636 9.846 19.0455 9.76411C19.1274 9.67593 19.2282 9.63184 19.3478 9.63184C19.4675 9.63184 19.5683 9.67593 19.6502 9.76411C19.7384 9.846 19.7825 9.94678 19.7825 10.0665V15.4143H22.8721C22.9918 15.4143 23.0926 15.4584 23.1745 15.5466C23.2626 15.6284 23.3067 15.7292 23.3067 15.8489C23.3067 15.9686 23.2626 16.0694 23.1745 16.1513C23.0926 16.2331 22.9918 16.2741 22.8721 16.2741H19.5179Z" fill="white"/>
<path d="M10.4899 16.3213C10.3703 16.3213 10.2695 16.2804 10.1876 16.1985C10.1057 16.1166 10.0648 16.0158 10.0648 15.8961V10.2554C10.0648 10.0854 10.1246 9.94048 10.2443 9.8208C10.364 9.69483 10.5088 9.63184 10.6789 9.63184H10.9907C11.1167 9.63184 11.2332 9.66963 11.3403 9.74522C11.4474 9.8208 11.523 9.91529 11.5671 10.0287L13.7118 15.3765L15.8566 10.0287C15.907 9.91529 15.9826 9.8208 16.0834 9.74522C16.1905 9.66963 16.307 9.63184 16.433 9.63184H16.7448C16.9149 9.63184 17.0597 9.69483 17.1794 9.8208C17.2991 9.94048 17.3589 10.0854 17.3589 10.2554V15.8961C17.3589 16.0158 17.318 16.1166 17.2361 16.1985C17.1542 16.2804 17.0534 16.3213 16.9338 16.3213C16.8141 16.3213 16.7102 16.2804 16.622 16.1985C16.5401 16.1166 16.4991 16.0158 16.4991 15.8961V10.5294L14.3165 15.9245C14.2662 16.0442 14.1874 16.1418 14.0803 16.2174C13.9733 16.2867 13.8504 16.3213 13.7118 16.3213C13.5733 16.3213 13.4504 16.2867 13.3434 16.2174C13.2363 16.1418 13.1575 16.0442 13.1071 15.9245L10.9246 10.5294V15.8961C10.9246 16.0158 10.8805 16.1166 10.7923 16.1985C10.7104 16.2804 10.6096 16.3213 10.4899 16.3213Z" fill="white"/>
<path d="M3.61265 16.3213C3.50557 16.3213 3.41109 16.2835 3.3292 16.2079C3.25361 16.1261 3.21582 16.0316 3.21582 15.9245C3.21582 15.8237 3.24417 15.7355 3.30086 15.6599L5.48344 12.9766L3.31975 10.3121C3.26306 10.2365 3.23472 10.1484 3.23472 10.0476C3.23472 9.92789 3.27251 9.83025 3.3481 9.75467C3.42998 9.67278 3.53077 9.63184 3.65045 9.63184C3.80162 9.63184 3.91815 9.68853 4.00004 9.80191L5.99366 12.3341L7.98728 9.78301C8.05657 9.68223 8.1605 9.63184 8.29908 9.63184C8.41246 9.63184 8.51009 9.67278 8.59198 9.75467C8.67386 9.83025 8.71481 9.92474 8.71481 10.0381C8.71481 10.1263 8.68961 10.205 8.63922 10.2743L6.45663 12.9671L8.63922 15.6505C8.69591 15.7135 8.72425 15.7954 8.72425 15.8961C8.72425 16.0095 8.68646 16.1103 8.61087 16.1985C8.53529 16.2804 8.43135 16.3213 8.29908 16.3213C8.1605 16.3213 8.04712 16.2615 7.95893 16.1418L5.93697 13.6002L3.94335 16.1513C3.84887 16.2646 3.73863 16.3213 3.61265 16.3213Z" fill="white"/>
<path d="M19.5179 16.2741C19.3541 16.2741 19.2124 16.2174 19.0927 16.104C18.9793 15.9843 18.9227 15.8426 18.9227 15.6788V10.0665C18.9227 9.94678 18.9636 9.846 19.0455 9.76411C19.1274 9.67593 19.2282 9.63184 19.3478 9.63184C19.4675 9.63184 19.5683 9.67593 19.6502 9.76411C19.7384 9.846 19.7825 9.94678 19.7825 10.0665V15.4143H22.8721C22.9918 15.4143 23.0926 15.4584 23.1745 15.5466C23.2626 15.6284 23.3067 15.7292 23.3067 15.8489C23.3067 15.9686 23.2626 16.0694 23.1745 16.1513C23.0926 16.2331 22.9918 16.2741 22.8721 16.2741H19.5179Z" stroke="white" stroke-width="0.945455" stroke-linejoin="round"/>
<path d="M10.4899 16.3213C10.3703 16.3213 10.2695 16.2804 10.1876 16.1985C10.1057 16.1166 10.0648 16.0158 10.0648 15.8961V10.2554C10.0648 10.0854 10.1246 9.94048 10.2443 9.8208C10.364 9.69483 10.5088 9.63184 10.6789 9.63184H10.9907C11.1167 9.63184 11.2332 9.66963 11.3403 9.74522C11.4474 9.8208 11.523 9.91529 11.5671 10.0287L13.7118 15.3765L15.8566 10.0287C15.907 9.91529 15.9826 9.8208 16.0834 9.74522C16.1905 9.66963 16.307 9.63184 16.433 9.63184H16.7448C16.9149 9.63184 17.0597 9.69483 17.1794 9.8208C17.2991 9.94048 17.3589 10.0854 17.3589 10.2554V15.8961C17.3589 16.0158 17.318 16.1166 17.2361 16.1985C17.1542 16.2804 17.0534 16.3213 16.9338 16.3213C16.8141 16.3213 16.7102 16.2804 16.622 16.1985C16.5401 16.1166 16.4991 16.0158 16.4991 15.8961V10.5294L14.3165 15.9245C14.2662 16.0442 14.1874 16.1418 14.0803 16.2174C13.9733 16.2867 13.8504 16.3213 13.7118 16.3213C13.5733 16.3213 13.4504 16.2867 13.3434 16.2174C13.2363 16.1418 13.1575 16.0442 13.1071 15.9245L10.9246 10.5294V15.8961C10.9246 16.0158 10.8805 16.1166 10.7923 16.1985C10.7104 16.2804 10.6096 16.3213 10.4899 16.3213Z" stroke="white" stroke-width="0.945455" stroke-linejoin="round"/>
<path d="M3.61265 16.3213C3.50557 16.3213 3.41109 16.2835 3.3292 16.2079C3.25361 16.1261 3.21582 16.0316 3.21582 15.9245C3.21582 15.8237 3.24417 15.7355 3.30086 15.6599L5.48344 12.9766L3.31975 10.3121C3.26306 10.2365 3.23472 10.1484 3.23472 10.0476C3.23472 9.92789 3.27251 9.83025 3.3481 9.75467C3.42998 9.67278 3.53077 9.63184 3.65045 9.63184C3.80162 9.63184 3.91815 9.68853 4.00004 9.80191L5.99366 12.3341L7.98728 9.78301C8.05657 9.68223 8.1605 9.63184 8.29908 9.63184C8.41246 9.63184 8.51009 9.67278 8.59198 9.75467C8.67386 9.83025 8.71481 9.92474 8.71481 10.0381C8.71481 10.1263 8.68961 10.205 8.63922 10.2743L6.45663 12.9671L8.63922 15.6505C8.69591 15.7135 8.72425 15.7954 8.72425 15.8961C8.72425 16.0095 8.68646 16.1103 8.61087 16.1985C8.53529 16.2804 8.43135 16.3213 8.29908 16.3213C8.1605 16.3213 8.04712 16.2615 7.95893 16.1418L5.93697 13.6002L3.94335 16.1513C3.84887 16.2646 3.73863 16.3213 3.61265 16.3213Z" stroke="white" stroke-width="0.945455" stroke-linejoin="round"/>
</g>
<defs>
<linearGradient id="paint0_linear_2066_1277" x1="13" y1="0" x2="13" y2="26" gradientUnits="userSpaceOnUse">
<stop stop-color="#41BA55"/>
<stop offset="1" stop-color="#00A368"/>
</linearGradient>
<linearGradient id="paint1_linear_2066_1277" x1="17.1363" y1="-14.1818" x2="-4.72732" y2="47.2727" gradientUnits="userSpaceOnUse">
<stop stop-color="#74ED88"/>
<stop offset="1" stop-color="#00863E"/>
</linearGradient>
<clipPath id="clip0_2066_1277">
<rect width="26" height="26" rx="7.09091" fill="white"/>
</clipPath>
</defs>
</svg>
