<svg width="20" height="20" viewBox="0 0 20 20" xmlns="http://www.w3.org/2000/svg">
<path d="M18.4665 10.8907C18.3463 10.7702 18.1955 10.6847 18.0303 10.6434C17.8651 10.6021 17.6918 10.6066 17.529 10.6563C16.3916 10.9997 15.1824 11.0281 14.0301 10.7385C12.8778 10.449 11.8257 9.85226 10.9857 9.01198C10.1457 8.1717 9.54943 7.11932 9.26031 5.96693C8.97118 4.81454 9.00006 3.6053 9.34386 2.46803C9.39402 2.30514 9.39882 2.13166 9.35776 1.96625C9.31669 1.80083 9.23131 1.64974 9.11079 1.52923C8.99027 1.40871 8.83918 1.32333 8.67377 1.28226C8.50836 1.24119 8.33488 1.246 8.17199 1.29615C6.46136 1.82193 4.96018 2.87393 3.88214 4.3024C2.93941 5.55544 2.36451 7.0464 2.22196 8.60799C2.0794 10.1696 2.37482 11.74 3.07508 13.143C3.77534 14.546 4.85272 15.7262 6.18634 16.551C7.51996 17.3758 9.05704 17.8127 10.6251 17.8126C12.4559 17.8179 14.2378 17.2227 15.6978 16.118C17.1255 15.0389 18.1764 13.5369 18.7009 11.8258C18.7502 11.6634 18.7544 11.4905 18.7131 11.3258C18.6718 11.1611 18.5866 11.0107 18.4665 10.8907ZM14.5696 14.6204C13.306 15.5717 11.7412 16.0346 10.1634 15.9239C8.58555 15.8132 7.10078 15.1363 5.98233 14.0178C4.86388 12.8994 4.18702 11.4146 4.07631 9.83678C3.9656 8.25894 4.4285 6.6942 5.3798 5.43053C5.88037 4.76839 6.50074 4.20606 7.20871 3.77271C7.19464 3.97271 7.18761 4.1735 7.18761 4.37506C7.1901 6.61206 8.07984 8.75673 9.66164 10.3385C11.2434 11.9203 13.3881 12.8101 15.6251 12.8126C15.8267 12.8126 16.0275 12.8055 16.2275 12.7915C15.7943 13.4996 15.232 14.12 14.5696 14.6204Z" />
</svg>
